# Blender v2.66 (sub 0) OBJ File: ''
# www.blender.org
mtllib cube.mtl
o Cube
v 1.731600 1.035993 -1.731600
v 1.731600 1.035993 1.731600
v -1.731601 1.035993 1.731600
v -1.731600 1.035993 -1.731601
v 1.731601 -1.035993 -1.731599
v 1.731599 -1.035993 1.731601
v -1.731601 -1.035993 1.731600
v -1.731600 -1.035993 -1.731600
vt 0.000000 0.000000
vt 0.000000 -1.000000
vt -1.000000 -1.000000
vt 0.000000 1.000000
vt -1.000000 1.000000
vt -1.000000 0.000000
vt 1.000000 1.000000
vt 1.000000 0.000000
vn 0.000000 -1.000000 0.000000
vn -0.000000 1.000000 0.000000
vn -1.000000 -0.000000 0.000000
vn 0.000000 -0.000001 -1.000000
vn 1.000000 -0.000000 0.000000
vn -0.000000 0.000000 1.000000
vn -1.000000 0.000001 -0.000001
vn 0.000000 0.000000 -1.000000
usemtl Material
s off
f 1/1/1 2/2/1 3/3/1
f 5/4/2 8/5/2 7/6/2
f 1/1/3 5/4/3 2/6/3
f 2/1/4 6/4/4 7/5/4
f 3/1/5 7/4/5 8/7/5
f 5/1/6 1/2/6 8/6/6
f 4/6/1 1/1/1 3/3/1
f 6/1/2 5/4/2 7/6/2
f 5/4/7 6/5/7 2/6/7
f 3/6/8 2/1/8 7/5/8
f 4/8/5 3/1/5 8/7/5
f 1/2/6 4/3/6 8/6/6
